<?xml version="1.0" encoding="UTF-8" standalone="no"?>
<!DOCTYPE svg PUBLIC "-//W3C//DTD SVG 1.1//EN"
 "http://www.w3.org/Graphics/SVG/1.1/DTD/svg11.dtd">
<!-- Generated by graphviz version 2.43.0 (0)
 -->
<!-- Title: G Pages: 1 -->
<svg width="1018pt" height="512pt"
 viewBox="0.00 0.00 1018.00 512.00" xmlns="http://www.w3.org/2000/svg" xmlns:xlink="http://www.w3.org/1999/xlink">
<g id="graph0" class="graph" transform="scale(1 1) rotate(0) translate(4 508)">
<title>G</title>
<polygon fill="white" stroke="transparent" points="-4,4 -4,-508 1014,-508 1014,4 -4,4"/>
<g id="clust1" class="cluster">
<title>cluster_root</title>
<g id="a_clust1"><a xlink:title="eventq_index=0&#10;full_system=false&#10;sim_quantum=0&#10;time_sync_enable=false&#10;time_sync_period=100000000000&#10;time_sync_spin_threshold=100000000">
<path fill="#bab6ae" stroke="#000000" d="M20,-8C20,-8 990,-8 990,-8 996,-8 1002,-14 1002,-20 1002,-20 1002,-484 1002,-484 1002,-490 996,-496 990,-496 990,-496 20,-496 20,-496 14,-496 8,-490 8,-484 8,-484 8,-20 8,-20 8,-14 14,-8 20,-8"/>
<text text-anchor="middle" x="505" y="-480.8" font-family="Arial" font-size="14.00" fill="#000000">root </text>
<text text-anchor="middle" x="505" y="-465.8" font-family="Arial" font-size="14.00" fill="#000000">: Root</text>
</a>
</g>
</g>
<g id="clust2" class="cluster">
<title>cluster_system</title>
<g id="a_clust2"><a xlink:title="auto_unlink_shared_backstore=false&#10;cache_line_size=64&#10;eventq_index=0&#10;exit_on_work_items=false&#10;init_param=0&#10;m5ops_base=0&#10;mem_mode=timing&#10;mem_ranges=0:536870912&#10;memories=system.mem_ctrls&#10;mmap_using_noreserve=false&#10;multi_thread=false&#10;&#10;um_work_ids=16&#10;&#13;eadfile=&#10;&#13;edirect_paths=system.redirect_paths0 system.redirect_paths1 system.redirect_paths2&#10;shadow_rom_ranges=&#10;shared_backstore=&#10;symbolfile=&#10;thermal_components=&#10;thermal_model=Null&#10;work_begin_ckpt_count=0&#10;work_begin_cpu_id_exit=&#45;1&#10;work_begin_exit_count=0&#10;work_cpus_ckpt_count=0&#10;work_end_ckpt_count=0&#10;work_end_exit_count=0&#10;work_item_id=&#45;1&#10;workload=system.workload">
<path fill="#e4e7eb" stroke="#000000" d="M28,-16C28,-16 982,-16 982,-16 988,-16 994,-22 994,-28 994,-28 994,-438 994,-438 994,-444 988,-450 982,-450 982,-450 28,-450 28,-450 22,-450 16,-444 16,-438 16,-438 16,-28 16,-28 16,-22 22,-16 28,-16"/>
<text text-anchor="middle" x="505" y="-434.8" font-family="Arial" font-size="14.00" fill="#000000">system </text>
<text text-anchor="middle" x="505" y="-419.8" font-family="Arial" font-size="14.00" fill="#000000">: System</text>
</a>
</g>
</g>
<g id="clust4" class="cluster">
<title>cluster_system_cpu</title>
<g id="a_clust4"><a xlink:title="branchPred=Null&#10;checker=Null&#10;clk_domain=system.cpu_clk_domain&#10;cpu_id=0&#10;decoder=system.cpu.decoder&#10;do_checkpoint_insts=true&#10;do_statistics_insts=true&#10;eventq_index=0&#10;function_trace=false&#10;function_trace_start=0&#10;interrupts=system.cpu.interrupts&#10;isa=system.cpu.isa&#10;max_insts_all_threads=0&#10;max_insts_any_thread=0&#10;mmu=system.cpu.mmu&#10;&#10;umThreads=1&#10;power_gating_on_idle=false&#10;power_model=&#10;power_state=system.cpu.power_state&#10;progress_interval=0&#10;pwr_gating_latency=300&#10;simpoint_start_insts=&#10;socket_id=0&#10;switched_out=false&#10;syscallRetryLatency=10000&#10;system=system&#10;tracer=system.cpu.tracer&#10;workload=system.cpu.workload">
<path fill="#bbc6d9" stroke="#000000" d="M36,-24C36,-24 850,-24 850,-24 856,-24 862,-30 862,-36 862,-36 862,-210 862,-210 862,-216 856,-222 850,-222 850,-222 36,-222 36,-222 30,-222 24,-216 24,-210 24,-210 24,-36 24,-36 24,-30 30,-24 36,-24"/>
<text text-anchor="middle" x="443" y="-206.8" font-family="Arial" font-size="14.00" fill="#000000">cpu </text>
<text text-anchor="middle" x="443" y="-191.8" font-family="Arial" font-size="14.00" fill="#000000">: ArmTimingSimpleCPU</text>
</a>
</g>
</g>
<g id="clust5" class="cluster">
<title>cluster_system_cpu_mmu</title>
<g id="a_clust5"><a xlink:title="dtb=system.cpu.mmu.dtb&#10;dtb_walker=system.cpu.mmu.dtb_walker&#10;eventq_index=0&#10;itb=system.cpu.mmu.itb&#10;itb_walker=system.cpu.mmu.itb_walker&#10;&#13;elease_se=system.cpu.isa.release_se&#10;stage2_dtb=system.cpu.mmu.stage2_dtb&#10;stage2_dtb_walker=system.cpu.mmu.stage2_dtb_walker&#10;stage2_itb=system.cpu.mmu.stage2_itb&#10;stage2_itb_walker=system.cpu.mmu.stage2_itb_walker&#10;sys=system">
<path fill="#bab6ae" stroke="#000000" d="M248,-32C248,-32 842,-32 842,-32 848,-32 854,-38 854,-44 854,-44 854,-164 854,-164 854,-170 848,-176 842,-176 842,-176 248,-176 248,-176 242,-176 236,-170 236,-164 236,-164 236,-44 236,-44 236,-38 242,-32 248,-32"/>
<text text-anchor="middle" x="545" y="-160.8" font-family="Arial" font-size="14.00" fill="#000000">mmu </text>
<text text-anchor="middle" x="545" y="-145.8" font-family="Arial" font-size="14.00" fill="#000000">: ArmMMU</text>
</a>
</g>
</g>
<g id="clust21" class="cluster">
<title>cluster_system_cpu_mmu_itb_walker</title>
<g id="a_clust21"><a xlink:title="clk_domain=system.cpu_clk_domain&#10;eventq_index=0&#10;is_stage2=false&#10;&#10;um_squash_per_cycle=2&#10;power_model=&#10;power_state=system.cpu.mmu.itb_walker.power_state&#10;sys=system">
<path fill="#9f9c95" stroke="#000000" d="M735,-40C735,-40 834,-40 834,-40 840,-40 846,-46 846,-52 846,-52 846,-118 846,-118 846,-124 840,-130 834,-130 834,-130 735,-130 735,-130 729,-130 723,-124 723,-118 723,-118 723,-52 723,-52 723,-46 729,-40 735,-40"/>
<text text-anchor="middle" x="784.5" y="-114.8" font-family="Arial" font-size="14.00" fill="#000000">itb_walker </text>
<text text-anchor="middle" x="784.5" y="-99.8" font-family="Arial" font-size="14.00" fill="#000000">: ArmTableWalker</text>
</a>
</g>
</g>
<g id="clust23" class="cluster">
<title>cluster_system_cpu_mmu_dtb_walker</title>
<g id="a_clust23"><a xlink:title="clk_domain=system.cpu_clk_domain&#10;eventq_index=0&#10;is_stage2=false&#10;&#10;um_squash_per_cycle=2&#10;power_model=&#10;power_state=system.cpu.mmu.dtb_walker.power_state&#10;sys=system">
<path fill="#9f9c95" stroke="#000000" d="M604,-40C604,-40 703,-40 703,-40 709,-40 715,-46 715,-52 715,-52 715,-118 715,-118 715,-124 709,-130 703,-130 703,-130 604,-130 604,-130 598,-130 592,-124 592,-118 592,-118 592,-52 592,-52 592,-46 598,-40 604,-40"/>
<text text-anchor="middle" x="653.5" y="-114.8" font-family="Arial" font-size="14.00" fill="#000000">dtb_walker </text>
<text text-anchor="middle" x="653.5" y="-99.8" font-family="Arial" font-size="14.00" fill="#000000">: ArmTableWalker</text>
</a>
</g>
</g>
<g id="clust25" class="cluster">
<title>cluster_system_cpu_mmu_stage2_itb_walker</title>
<g id="a_clust25"><a xlink:title="clk_domain=system.cpu_clk_domain&#10;eventq_index=0&#10;is_stage2=true&#10;&#10;um_squash_per_cycle=2&#10;power_model=&#10;power_state=system.cpu.mmu.stage2_itb_walker.power_state&#10;sys=system">
<path fill="#9f9c95" stroke="#000000" d="M430,-40C430,-40 572,-40 572,-40 578,-40 584,-46 584,-52 584,-52 584,-118 584,-118 584,-124 578,-130 572,-130 572,-130 430,-130 430,-130 424,-130 418,-124 418,-118 418,-118 418,-52 418,-52 418,-46 424,-40 430,-40"/>
<text text-anchor="middle" x="501" y="-114.8" font-family="Arial" font-size="14.00" fill="#000000">stage2_itb_walker </text>
<text text-anchor="middle" x="501" y="-99.8" font-family="Arial" font-size="14.00" fill="#000000">: ArmStage2TableWalker</text>
</a>
</g>
</g>
<g id="clust27" class="cluster">
<title>cluster_system_cpu_mmu_stage2_dtb_walker</title>
<g id="a_clust27"><a xlink:title="clk_domain=system.cpu_clk_domain&#10;eventq_index=0&#10;is_stage2=true&#10;&#10;um_squash_per_cycle=2&#10;power_model=&#10;power_state=system.cpu.mmu.stage2_dtb_walker.power_state&#10;sys=system">
<path fill="#9f9c95" stroke="#000000" d="M256,-40C256,-40 398,-40 398,-40 404,-40 410,-46 410,-52 410,-52 410,-118 410,-118 410,-124 404,-130 398,-130 398,-130 256,-130 256,-130 250,-130 244,-124 244,-118 244,-118 244,-52 244,-52 244,-46 250,-40 256,-40"/>
<text text-anchor="middle" x="327" y="-114.8" font-family="Arial" font-size="14.00" fill="#000000">stage2_dtb_walker </text>
<text text-anchor="middle" x="327" y="-99.8" font-family="Arial" font-size="14.00" fill="#000000">: ArmStage2TableWalker</text>
</a>
</g>
</g>
<g id="clust41" class="cluster">
<title>cluster_system_membus</title>
<g id="a_clust41"><a xlink:title="clk_domain=system.clk_domain&#10;eventq_index=0&#10;forward_latency=4&#10;frontend_latency=3&#10;header_latency=1&#10;max_outstanding_snoops=512&#10;max_routing_table_size=512&#10;point_of_coherency=true&#10;point_of_unification=true&#10;power_model=&#10;power_state=system.membus.power_state&#10;&#13;esponse_latency=2&#10;snoop_filter=system.membus.snoop_filter&#10;snoop_response_latency=4&#10;system=system&#10;use_default_range=false&#10;width=16">
<path fill="#6f798c" stroke="#000000" d="M451,-230C451,-230 687,-230 687,-230 693,-230 699,-236 699,-242 699,-242 699,-308 699,-308 699,-314 693,-320 687,-320 687,-320 451,-320 451,-320 445,-320 439,-314 439,-308 439,-308 439,-242 439,-242 439,-236 445,-230 451,-230"/>
<text text-anchor="middle" x="569" y="-304.8" font-family="Arial" font-size="14.00" fill="#000000">membus </text>
<text text-anchor="middle" x="569" y="-289.8" font-family="Arial" font-size="14.00" fill="#000000">: SystemXBar</text>
</a>
</g>
</g>
<g id="clust44" class="cluster">
<title>cluster_system_mem_ctrls</title>
<g id="a_clust44"><a xlink:title="bandwidth=73.000000&#10;clk_domain=system.clk_domain&#10;collect_stats=true&#10;conf_table_reported=true&#10;eventq_index=0&#10;image_file=&#10;in_addr_map=true&#10;kvm_map=true&#10;&#10;atency=30000&#10;&#10;atency_var=0&#10;&#10;ull=false&#10;power_model=&#10;power_state=system.mem_ctrls.power_state&#10;&#13;ange=0:536870912&#10;writeable=true">
<path fill="#5e5958" stroke="#000000" d="M882,-40C882,-40 974,-40 974,-40 980,-40 986,-46 986,-52 986,-52 986,-118 986,-118 986,-124 980,-130 974,-130 974,-130 882,-130 882,-130 876,-130 870,-124 870,-118 870,-118 870,-52 870,-52 870,-46 876,-40 882,-40"/>
<text text-anchor="middle" x="928" y="-114.8" font-family="Arial" font-size="14.00" fill="#000000">mem_ctrls </text>
<text text-anchor="middle" x="928" y="-99.8" font-family="Arial" font-size="14.00" fill="#000000">: SimpleMemory</text>
</a>
</g>
</g>
<!-- system_system_port -->
<g id="node1" class="node">
<title>system_system_port</title>
<path fill="#b6b8bc" stroke="#000000" d="M534.5,-404C534.5,-404 467.5,-404 467.5,-404 461.5,-404 455.5,-398 455.5,-392 455.5,-392 455.5,-380 455.5,-380 455.5,-374 461.5,-368 467.5,-368 467.5,-368 534.5,-368 534.5,-368 540.5,-368 546.5,-374 546.5,-380 546.5,-380 546.5,-392 546.5,-392 546.5,-398 540.5,-404 534.5,-404"/>
<text text-anchor="middle" x="501" y="-382.3" font-family="Arial" font-size="14.00" fill="#000000">system_port</text>
</g>
<!-- system_membus_cpu_side_ports -->
<g id="node8" class="node">
<title>system_membus_cpu_side_ports</title>
<path fill="#586070" stroke="#000000" d="M543,-274C543,-274 459,-274 459,-274 453,-274 447,-268 447,-262 447,-262 447,-250 447,-250 447,-244 453,-238 459,-238 459,-238 543,-238 543,-238 549,-238 555,-244 555,-250 555,-250 555,-262 555,-262 555,-268 549,-274 543,-274"/>
<text text-anchor="middle" x="501" y="-252.3" font-family="Arial" font-size="14.00" fill="#000000">cpu_side_ports</text>
</g>
<!-- system_system_port&#45;&gt;system_membus_cpu_side_ports -->
<g id="edge1" class="edge">
<title>system_system_port&#45;&gt;system_membus_cpu_side_ports</title>
<path fill="none" stroke="black" d="M501,-367.74C501,-346.36 501,-309.69 501,-284.44"/>
<polygon fill="black" stroke="black" points="504.5,-284.4 501,-274.4 497.5,-284.4 504.5,-284.4"/>
</g>
<!-- system_cpu_icache_port -->
<g id="node2" class="node">
<title>system_cpu_icache_port</title>
<path fill="#959ead" stroke="#000000" d="M216,-84C216,-84 154,-84 154,-84 148,-84 142,-78 142,-72 142,-72 142,-60 142,-60 142,-54 148,-48 154,-48 154,-48 216,-48 216,-48 222,-48 228,-54 228,-60 228,-60 228,-72 228,-72 228,-78 222,-84 216,-84"/>
<text text-anchor="middle" x="185" y="-62.3" font-family="Arial" font-size="14.00" fill="#000000">icache_port</text>
</g>
<!-- system_cpu_dcache_port -->
<g id="node3" class="node">
<title>system_cpu_dcache_port</title>
<path fill="#959ead" stroke="#000000" d="M111.5,-84C111.5,-84 44.5,-84 44.5,-84 38.5,-84 32.5,-78 32.5,-72 32.5,-72 32.5,-60 32.5,-60 32.5,-54 38.5,-48 44.5,-48 44.5,-48 111.5,-48 111.5,-48 117.5,-48 123.5,-54 123.5,-60 123.5,-60 123.5,-72 123.5,-72 123.5,-78 117.5,-84 111.5,-84"/>
<text text-anchor="middle" x="78" y="-62.3" font-family="Arial" font-size="14.00" fill="#000000">dcache_port</text>
</g>
<!-- system_cpu_mmu_itb_walker_port -->
<g id="node4" class="node">
<title>system_cpu_mmu_itb_walker_port</title>
<path fill="#7f7c77" stroke="#000000" d="M773,-84C773,-84 743,-84 743,-84 737,-84 731,-78 731,-72 731,-72 731,-60 731,-60 731,-54 737,-48 743,-48 743,-48 773,-48 773,-48 779,-48 785,-54 785,-60 785,-60 785,-72 785,-72 785,-78 779,-84 773,-84"/>
<text text-anchor="middle" x="758" y="-62.3" font-family="Arial" font-size="14.00" fill="#000000">port</text>
</g>
<!-- system_cpu_mmu_dtb_walker_port -->
<g id="node5" class="node">
<title>system_cpu_mmu_dtb_walker_port</title>
<path fill="#7f7c77" stroke="#000000" d="M642,-84C642,-84 612,-84 612,-84 606,-84 600,-78 600,-72 600,-72 600,-60 600,-60 600,-54 606,-48 612,-48 612,-48 642,-48 642,-48 648,-48 654,-54 654,-60 654,-60 654,-72 654,-72 654,-78 648,-84 642,-84"/>
<text text-anchor="middle" x="627" y="-62.3" font-family="Arial" font-size="14.00" fill="#000000">port</text>
</g>
<!-- system_cpu_mmu_stage2_itb_walker_port -->
<g id="node6" class="node">
<title>system_cpu_mmu_stage2_itb_walker_port</title>
<path fill="#7f7c77" stroke="#000000" d="M516,-84C516,-84 486,-84 486,-84 480,-84 474,-78 474,-72 474,-72 474,-60 474,-60 474,-54 480,-48 486,-48 486,-48 516,-48 516,-48 522,-48 528,-54 528,-60 528,-60 528,-72 528,-72 528,-78 522,-84 516,-84"/>
<text text-anchor="middle" x="501" y="-62.3" font-family="Arial" font-size="14.00" fill="#000000">port</text>
</g>
<!-- system_cpu_mmu_stage2_dtb_walker_port -->
<g id="node7" class="node">
<title>system_cpu_mmu_stage2_dtb_walker_port</title>
<path fill="#7f7c77" stroke="#000000" d="M390,-84C390,-84 360,-84 360,-84 354,-84 348,-78 348,-72 348,-72 348,-60 348,-60 348,-54 354,-48 360,-48 360,-48 390,-48 390,-48 396,-48 402,-54 402,-60 402,-60 402,-72 402,-72 402,-78 396,-84 390,-84"/>
<text text-anchor="middle" x="375" y="-62.3" font-family="Arial" font-size="14.00" fill="#000000">port</text>
</g>
<!-- system_membus_cpu_side_ports&#45;&gt;system_cpu_icache_port -->
<g id="edge2" class="edge">
<title>system_membus_cpu_side_ports&#45;&gt;system_cpu_icache_port</title>
<path fill="none" stroke="black" d="M436.67,-254.41C369.33,-252.51 269.36,-245.63 240,-222 196.96,-187.35 187.56,-116.53 185.54,-84.01"/>
<polygon fill="black" stroke="black" points="436.68,-257.91 446.77,-254.67 436.86,-250.92 436.68,-257.91"/>
</g>
<!-- system_membus_cpu_side_ports&#45;&gt;system_cpu_dcache_port -->
<g id="edge3" class="edge">
<title>system_membus_cpu_side_ports&#45;&gt;system_cpu_dcache_port</title>
<path fill="none" stroke="black" d="M436.73,-252.97C337.62,-249.29 156.41,-240.15 133,-222 89.34,-188.14 80.26,-116.91 78.43,-84.15"/>
<polygon fill="black" stroke="black" points="436.81,-256.48 446.93,-253.34 437.07,-249.48 436.81,-256.48"/>
</g>
<!-- system_membus_cpu_side_ports&#45;&gt;system_cpu_mmu_itb_walker_port -->
<g id="edge4" class="edge">
<title>system_membus_cpu_side_ports&#45;&gt;system_cpu_mmu_itb_walker_port</title>
<path fill="none" stroke="black" d="M547.65,-234.56C553.08,-232.76 558.61,-231.18 564,-230 580.85,-226.33 705.68,-232.95 719,-222 760.48,-187.91 761.54,-116.8 759.58,-84.11"/>
<polygon fill="black" stroke="black" points="546.26,-231.34 538.01,-238 548.61,-237.93 546.26,-231.34"/>
</g>
<!-- system_membus_cpu_side_ports&#45;&gt;system_cpu_mmu_dtb_walker_port -->
<g id="edge5" class="edge">
<title>system_membus_cpu_side_ports&#45;&gt;system_cpu_mmu_dtb_walker_port</title>
<path fill="none" stroke="black" d="M552.51,-234.29C556.39,-232.81 560.25,-231.37 564,-230 574.56,-226.15 580.35,-230.24 588,-222 624.04,-183.14 628.01,-115.98 627.7,-84.39"/>
<polygon fill="black" stroke="black" points="550.97,-231.13 542.9,-238 553.49,-237.66 550.97,-231.13"/>
</g>
<!-- system_membus_cpu_side_ports&#45;&gt;system_cpu_mmu_stage2_itb_walker_port -->
<g id="edge6" class="edge">
<title>system_membus_cpu_side_ports&#45;&gt;system_cpu_mmu_stage2_itb_walker_port</title>
<path fill="none" stroke="black" d="M501,-227.81C501,-188.47 501,-116.82 501,-84.11"/>
<polygon fill="black" stroke="black" points="497.5,-227.98 501,-237.98 504.5,-227.98 497.5,-227.98"/>
</g>
<!-- system_membus_cpu_side_ports&#45;&gt;system_cpu_mmu_stage2_dtb_walker_port -->
<g id="edge7" class="edge">
<title>system_membus_cpu_side_ports&#45;&gt;system_cpu_mmu_stage2_dtb_walker_port</title>
<path fill="none" stroke="black" d="M437.48,-239.35C428.68,-234.92 420.46,-229.25 414,-222 378.76,-182.41 374.4,-115.62 374.45,-84.25"/>
<polygon fill="black" stroke="black" points="436.26,-242.63 446.81,-243.52 439.12,-236.24 436.26,-242.63"/>
</g>
<!-- system_membus_mem_side_ports -->
<g id="node9" class="node">
<title>system_membus_mem_side_ports</title>
<path fill="#586070" stroke="#000000" d="M679,-274C679,-274 585,-274 585,-274 579,-274 573,-268 573,-262 573,-262 573,-250 573,-250 573,-244 579,-238 585,-238 585,-238 679,-238 679,-238 685,-238 691,-244 691,-250 691,-250 691,-262 691,-262 691,-268 685,-274 679,-274"/>
<text text-anchor="middle" x="632" y="-252.3" font-family="Arial" font-size="14.00" fill="#000000">mem_side_ports</text>
</g>
<!-- system_mem_ctrls_port -->
<g id="node10" class="node">
<title>system_mem_ctrls_port</title>
<path fill="#4b4746" stroke="#000000" d="M920,-84C920,-84 890,-84 890,-84 884,-84 878,-78 878,-72 878,-72 878,-60 878,-60 878,-54 884,-48 890,-48 890,-48 920,-48 920,-48 926,-48 932,-54 932,-60 932,-60 932,-72 932,-72 932,-78 926,-84 920,-84"/>
<text text-anchor="middle" x="905" y="-62.3" font-family="Arial" font-size="14.00" fill="#000000">port</text>
</g>
<!-- system_membus_mem_side_ports&#45;&gt;system_mem_ctrls_port -->
<g id="edge8" class="edge">
<title>system_membus_mem_side_ports&#45;&gt;system_mem_ctrls_port</title>
<path fill="none" stroke="black" d="M691.01,-252.78C747.13,-249.51 826.38,-241.49 850,-222 888.52,-190.21 900.08,-129.5 903.53,-94.24"/>
<polygon fill="black" stroke="black" points="907.03,-94.42 904.37,-84.17 900.05,-93.84 907.03,-94.42"/>
</g>
</g>
</svg>
